# xmcd
#
# Track frame offsets:
#	150
#	13467
#	21642
#	32913
#	41877
#	54828
#	66006
#	74184
#	85247
#	99431
#	115724
#	127990
#	138876
#	149897
#	160862
#	169035
#	178484
#	189758
#	200306
#	210479
#	220828
#	231112
#	241155
#	255085
#
# Disc length: 3582 seconds
# Revision: 2
# Processed by: cddbd v1.5.2PL0 Copyright (c) Steve Scherf et al.
# Submitted via: dBpowerAMP V12.0
#
DISCID=5d0dfc18
DTITLE=Marty Robbins - Six Classic Albums Plus Bonus Singles [Remastered]
DYEAR=1957
DGENRE=Hawaiian
TTITLE0=Song of the Islands [Remastered]
TTITLE1=Don't Sing Aloha When I Go [Remastered]
TTITLE2=Beyond the Reef [Remastered]
TTITLE3=Crying Steel Guitar Waltz [Remastered]
TTITLE4=My Isle of Golden Dreams [Remastered]
TTITLE5=Now Is the Hour [Remastered]
TTITLE6=Sweet Leilani [Remastered]
TTITLE7=Down Where the Trade Wind Blows [Remastered]
TTITLE8=Constancy [Remastered]
TTITLE9=Island Echoes [Remastered]
TTITLE10=Moonland [Remastered]
TTITLE11=Aloha Oe (Farewell to Three) [Remastered]
TTITLE12=Kaw-Liga [Remastered]
TTITLE13=Judy [Remastered]
TTITLE14=Nothing But Sweet Lies [Remastered]
TTITLE15=Oh How I Miss You (Since You Went Away) [Remastered]
TTITLE16=Baby I Need You (Like You Need Me) [Remastered]
TTITLE17=Shackles and Chains [Remastered]
TTITLE18=Waltz of the Wind [Remastered]
TTITLE19=Paper Face [Remastered]
TTITLE20=Then I Turned and Walked Slowly Away [Remastered]
TTITLE21=Wedding Bells [Remastered]
TTITLE22=A House with Everything But Love [Remastered]
TTITLE23=The Hands You're Holding Now [Remastered]
EXTD=
EXTT0=
EXTT1=
EXTT2=
EXTT3=
EXTT4=
EXTT5=
EXTT6=
EXTT7=
EXTT8=
EXTT9=
EXTT10=
EXTT11=
EXTT12=
EXTT13=
EXTT14=
EXTT15=
EXTT16=
EXTT17=
EXTT18=
EXTT19=
EXTT20=
EXTT21=
EXTT22=
EXTT23=
PLAYORDER=
